<svg width="38" height="24" viewBox="0 0 38 24" fill="none" xmlns="http://www.w3.org/2000/svg">
<g clip-path="url(#clip0_167_70344)">
<path d="M37.44 0H0V24H37.44V0Z" fill="#2557D6"/>
<path d="M0.0119587 11.314H1.80913L2.21434 10.3775H3.12154L3.5257 11.314H7.06177V10.5981L7.37742 11.3171H9.21308L9.52873 10.5874V11.3141H18.3166L18.3125 9.77682H18.4825C18.6015 9.78081 18.6363 9.79132 18.6363 9.97967V11.3141H23.1814V10.9562C23.548 11.1444 24.1182 11.3141 24.8685 11.3141H26.7806L27.1898 10.3776H28.097L28.4972 11.3141H32.1819V10.4245L32.7399 11.3141H35.6927V5.43359H32.7704V6.12806L32.3614 5.43359H29.3628V6.12806L28.987 5.43359H24.9368C24.2589 5.43359 23.6629 5.52427 23.1815 5.77694V5.43359H20.3865V5.77694C20.0801 5.51649 19.6627 5.43359 19.1985 5.43359H8.98695L8.3018 6.95236L7.59817 5.43359H4.38193V6.12806L4.02855 5.43359H1.28559L0.0117188 8.2294V11.3139H0.0118627L0.0119587 11.314ZM11.3563 10.4659H10.278L10.274 7.16375L8.74882 10.4658H7.8253L6.29612 7.16083V10.4658H4.15676L3.7526 9.5254H1.5625L1.15426 10.4658H0.0118148L1.89538 6.24964H3.45822L5.24713 10.2415V6.24964H6.9639L8.34044 9.10982L9.60495 6.24964H11.3562L11.3563 10.4659ZM3.39308 8.65036L2.67317 6.96955L1.95725 8.65036H3.39308ZM15.6475 10.4658H12.1337V6.24959H15.6475V7.12756H13.1856V7.88755H15.5885V8.75179H13.1856V9.5938H15.6474L15.6475 10.4658ZM20.5992 7.38513C20.5992 8.05732 20.1309 8.40465 19.8581 8.50891C20.0882 8.59281 20.2849 8.74113 20.3784 8.86396C20.5269 9.07367 20.5526 9.26097 20.5526 9.63753V10.4658H19.4916L19.4876 9.93407C19.4876 9.68039 19.5129 9.31555 19.3216 9.1127C19.1679 8.96438 18.9336 8.93222 18.5549 8.93222H17.4258V10.4658H16.3739V6.24959H18.7932C19.3307 6.24959 19.7268 6.26318 20.0668 6.45153C20.3996 6.63988 20.5992 6.91483 20.5992 7.38513ZM19.2696 8.01115C19.125 8.09524 18.9541 8.09803 18.7492 8.09803H17.4715V7.16155H18.7666C18.9499 7.16155 19.1412 7.16942 19.2655 7.23758C19.4019 7.29902 19.4863 7.42972 19.4863 7.6103C19.4863 7.79462 19.406 7.94289 19.2696 8.01115ZM22.2861 10.4658H21.2129V6.24959H22.2861V10.4658ZM34.745 10.4658H33.2545L31.2608 7.30127V10.4658H29.1186L28.7093 9.52535H26.5243L26.1273 10.4658H24.8962C24.3851 10.4658 23.7376 10.3574 23.3711 9.99945C23.0015 9.64147 22.8091 9.15657 22.8091 8.38987C22.8091 7.76457 22.9241 7.19294 23.3761 6.74121C23.7162 6.40473 24.2487 6.24959 24.9735 6.24959H25.9919V7.153H24.9949C24.611 7.153 24.3942 7.20772 24.1855 7.40275C24.0062 7.5803 23.8832 7.91587 23.8832 8.3578C23.8832 8.80948 23.9768 9.13521 24.1723 9.34795C24.3342 9.51479 24.6286 9.56539 24.9053 9.56539H25.3778L26.8602 6.24974H28.4363L30.2172 10.2376V6.24979H31.8187L33.6676 9.18614V6.24979H34.745V10.4658ZM28.3514 8.65041L27.6235 6.96959L26.8996 8.65041H28.3514ZM37.4253 17.1982C37.1699 17.5562 36.672 17.7377 35.998 17.7377H33.9667V16.8334H35.9897C36.1904 16.8334 36.3308 16.8081 36.4154 16.729C36.4953 16.6582 36.5404 16.5584 36.5398 16.454C36.5398 16.331 36.4887 16.2335 36.4113 16.175C36.335 16.1106 36.2239 16.0814 36.0406 16.0814C35.0531 16.0493 33.8209 16.1106 33.8209 14.7761C33.8209 14.1645 34.2262 13.5206 35.33 13.5206H37.4251V12.6816H35.4784C34.891 12.6816 34.4642 12.8165 34.162 13.026V12.6816H31.2827C30.8222 12.6816 30.2817 12.791 30.0261 13.026V12.6816H24.8844V13.026C24.4752 12.7432 23.7848 12.6816 23.466 12.6816H20.0745V13.026C19.7508 12.7256 19.0309 12.6816 18.592 12.6816H14.7963L13.9278 13.5823L13.1142 12.6816H7.44399V18.5659H13.0072L13.9022 17.6509L14.7453 18.5659L18.1745 18.5688V17.1846H18.5115C18.9665 17.1913 19.5032 17.1737 19.9766 16.9776V18.5657H22.8052V17.032H22.9416C23.1158 17.032 23.1329 17.0389 23.1329 17.2055V18.5655H31.7254C32.2708 18.5655 32.8411 18.4318 33.1569 18.189V18.5655H35.8824C36.4495 18.5655 37.0034 18.4894 37.4248 18.2944L37.4249 17.1981L37.4253 17.1982ZM20.3882 14.9348C20.3882 16.1063 19.476 16.3482 18.5566 16.3482H17.2441V17.7627H15.1997L13.9045 16.3666L12.5585 17.7627H8.39199V13.5454H12.6225L13.9166 14.9278L15.2546 13.5454H18.6156C19.4503 13.5454 20.3882 13.7669 20.3882 14.9348ZM12.0256 16.8756H9.4395V16.0366H11.7488V15.1762H9.4395V14.4094H12.0766L13.2271 15.6384L12.0256 16.8756ZM16.1925 17.3585L14.5776 15.6406L16.1925 13.9774V17.3585ZM18.5809 15.4834H17.2216V14.4094H18.5931C18.9728 14.4094 19.2364 14.5577 19.2364 14.9265C19.2364 15.2912 18.985 15.4834 18.5809 15.4834ZM25.7021 13.5454H29.2128V14.4176H26.7496V15.1843H29.1526V16.0448H26.7496V16.8838L29.2127 16.8876V17.7627H25.702L25.7021 13.5454ZM24.3524 15.8028C24.5866 15.8856 24.7779 16.034 24.8677 16.1568C25.0162 16.3628 25.0377 16.555 25.0419 16.9266V17.7627H23.9858V17.2351C23.9858 16.9813 24.0113 16.6057 23.8158 16.4096C23.6622 16.2585 23.4278 16.2224 23.0442 16.2224H21.92V17.7627H20.8631V13.5455H23.2916C23.824 13.5455 24.2119 13.5681 24.5571 13.7445C24.8891 13.9367 25.0979 14.1999 25.0979 14.681C25.0979 15.3541 24.6292 15.6976 24.3524 15.8028ZM23.7579 15.2697C23.6172 15.3497 23.4433 15.3566 23.2387 15.3566H21.9608V14.4095H23.256C23.4433 14.4095 23.6307 14.4133 23.7579 14.4857C23.8943 14.554 23.9758 14.6847 23.9758 14.865C23.9758 15.0454 23.8942 15.1907 23.7579 15.2697ZM33.2533 15.5384C33.4583 15.7414 33.5679 15.9978 33.5679 16.4318C33.5679 17.339 32.9764 17.7625 31.9155 17.7625H29.8669V16.8582H31.9073C32.1069 16.8582 32.2483 16.833 32.3369 16.7538C32.4093 16.6886 32.4612 16.5938 32.4612 16.4788C32.4612 16.3558 32.4051 16.2584 32.3328 16.1998C32.2524 16.1355 32.1415 16.1063 31.9583 16.1063C30.9746 16.0741 29.7427 16.1355 29.7427 14.8011C29.7427 14.1894 30.1438 13.5455 31.2466 13.5455H33.3553V14.4431H31.4258C31.2346 14.4431 31.1102 14.4501 31.0044 14.5193C30.8892 14.5875 30.8465 14.6889 30.8465 14.8226C30.8465 14.9817 30.9443 15.0899 31.0767 15.1368C31.1876 15.1738 31.3068 15.1846 31.4859 15.1846L32.0522 15.1992C32.6231 15.2125 33.0151 15.3071 33.2533 15.5384ZM37.4271 14.4094H35.5101C35.3188 14.4094 35.1915 14.4163 35.0845 14.4856C34.9735 14.5539 34.9308 14.6552 34.9308 14.789C34.9308 14.9481 35.0245 15.0563 35.1608 15.1031C35.2718 15.1402 35.3909 15.151 35.5661 15.151L36.1362 15.1655C36.7114 15.1792 37.0954 15.2739 37.3295 15.505C37.3723 15.5372 37.3978 15.5733 37.4271 15.6094V14.4094H37.4271Z" fill="white"/>
</g>
<defs>
<clipPath id="clip0_167_70344">
<rect width="37.44" height="24" fill="white"/>
</clipPath>
</defs>
</svg>
