<svg width="24" height="24" viewBox="0 0 24 24" fill="none" xmlns="http://www.w3.org/2000/svg">
<path d="M7.81636 0.319681L18.7249 11.2282C18.8263 11.3295 18.9068 11.4498 18.9617 11.5823C19.0166 11.7147 19.0448 11.8566 19.0448 12C19.0448 12.1434 19.0166 12.2853 18.9617 12.4177C18.9068 12.5502 18.8263 12.6705 18.7249 12.7718L7.81636 23.6803C7.61168 23.885 7.33406 24 7.04459 24C6.75511 24 6.47749 23.885 6.27281 23.6803C6.06812 23.4756 5.95313 23.198 5.95312 22.9085C5.95312 22.6191 6.06812 22.3414 6.27281 22.1368L16.4109 12L6.27281 1.86324C6.17145 1.76189 6.09106 1.64157 6.03621 1.50914C5.98136 1.37672 5.95313 1.23479 5.95313 1.09146C5.95313 0.948128 5.98136 0.806198 6.03621 0.673777C6.09106 0.541353 6.17145 0.421032 6.27281 0.319681C6.37416 0.218328 6.49448 0.137934 6.6269 0.0830841C6.75932 0.0282326 6.90125 0 7.04459 0C7.18792 0 7.32985 0.0282326 7.46227 0.0830841C7.59469 0.137934 7.71501 0.218328 7.81636 0.319681Z" fill="#051E33"/>
</svg>
