<svg width="22" height="20" viewBox="0 0 22 20" fill="none" xmlns="http://www.w3.org/2000/svg">
<path d="M9.10345 18.2069C9.10345 18.507 9.01446 18.8003 8.84775 19.0498C8.68103 19.2993 8.44407 19.4938 8.16683 19.6086C7.88959 19.7235 7.58452 19.7535 7.29021 19.695C6.99589 19.6364 6.72555 19.4919 6.51336 19.2797C6.30117 19.0676 6.15666 18.7972 6.09812 18.5029C6.03958 18.2086 6.06962 17.9035 6.18446 17.6263C6.2993 17.349 6.49376 17.1121 6.74327 16.9454C6.99278 16.7786 7.28613 16.6897 7.58621 16.6897C7.9886 16.6897 8.37452 16.8495 8.65906 17.134C8.9436 17.4186 9.10345 17.8045 9.10345 18.2069ZM17.4483 16.6897C17.1482 16.6897 16.8549 16.7786 16.6053 16.9454C16.3558 17.1121 16.1614 17.349 16.0465 17.6263C15.9317 17.9035 15.9016 18.2086 15.9602 18.5029C16.0187 18.7972 16.1632 19.0676 16.3754 19.2797C16.5876 19.4919 16.858 19.6364 17.1523 19.695C17.4466 19.7535 17.7517 19.7235 18.0289 19.6086C18.3061 19.4938 18.5431 19.2993 18.7098 19.0498C18.8765 18.8003 18.9655 18.507 18.9655 18.2069C18.9655 17.8045 18.8057 17.4186 18.5211 17.134C18.2366 16.8495 17.8507 16.6897 17.4483 16.6897ZM21.9725 4.75466L19.5411 13.5053C19.4074 13.9834 19.1215 14.4047 18.7267 14.7056C18.3319 15.0064 17.8498 15.1703 17.3534 15.1724H7.98069C7.48288 15.1722 6.99879 15.0091 6.60227 14.7082C6.20575 14.4072 5.91856 13.9848 5.78448 13.5053L2.45793 1.51724H0.758621C0.557422 1.51724 0.364464 1.43732 0.222195 1.29505C0.0799258 1.15278 0 0.959819 0 0.758621C0 0.557422 0.0799258 0.364464 0.222195 0.222195C0.364464 0.0799259 0.557422 1.40121e-08 0.758621 1.40121e-08H3.03448C3.20034 -3.18524e-05 3.36163 0.0542903 3.49368 0.154651C3.62572 0.255011 3.72124 0.395879 3.7656 0.55569L4.66457 3.7931H21.2414C21.3583 3.79308 21.4737 3.8201 21.5785 3.87205C21.6833 3.92399 21.7746 3.99946 21.8454 4.09256C21.9162 4.18566 21.9645 4.29386 21.9865 4.40871C22.0086 4.52357 22.0038 4.64197 21.9725 4.75466ZM20.2428 5.31034H5.08655L7.24957 13.0995C7.29393 13.2593 7.38945 13.4002 7.5215 13.5005C7.65354 13.6009 7.81484 13.6552 7.98069 13.6552H17.3534C17.5193 13.6552 17.6806 13.6009 17.8126 13.5005C17.9447 13.4002 18.0402 13.2593 18.0846 13.0995L20.2428 5.31034Z" fill="#051E33"/>
</svg>
