<svg width="30" height="30" viewBox="0 0 30 30" fill="none" xmlns="http://www.w3.org/2000/svg">
<g clip-path="url(#clip0_167_70663)">
<path d="M15.4787 0.198278L22.2968 7.0163C22.5828 7.26122 22.6162 7.69164 22.3712 7.97763C22.1263 8.26362 21.6958 8.29696 21.4098 8.05199C21.3832 8.02914 21.3583 8.00429 21.3355 7.97763L15.6765 2.32549L15.6765 29.3182C15.6765 29.6947 15.3712 30 14.9946 30C14.6181 30 14.3129 29.6947 14.3129 29.3182L14.3129 2.32549L8.66071 7.97763C8.4158 8.26362 7.98537 8.29696 7.69938 8.05199C7.41339 7.80701 7.38005 7.37665 7.62503 7.09066C7.64788 7.064 7.67272 7.0391 7.69938 7.0163L14.5175 0.198219C14.7833 -0.0660915 15.2128 -0.0660915 15.4787 0.198278Z" fill="#D2AE6D"/>
</g>
<defs>
<clipPath id="clip0_167_70663">
<rect width="30" height="30" fill="white" transform="matrix(0 -1 -1 0 30 30)"/>
</clipPath>
</defs>
</svg>
