<svg width="40" height="16" viewBox="0 0 40 16" fill="none" xmlns="http://www.w3.org/2000/svg">
<path d="M37.354 6.35403L32.354 11.354C32.3076 11.4005 32.2524 11.4374 32.1917 11.4626C32.131 11.4877 32.066 11.5007 32.0003 11.5007C31.9346 11.5007 31.8695 11.4877 31.8088 11.4626C31.7481 11.4374 31.693 11.4005 31.6465 11.354L26.6465 6.35403C26.5527 6.26021 26.5 6.13296 26.5 6.00028C26.5 5.8676 26.5527 5.74035 26.6465 5.64653C26.7403 5.55271 26.8676 5.5 27.0003 5.5C27.133 5.5 27.2602 5.55271 27.354 5.64653L32.0003 10.2934L36.6465 5.64653C36.693 5.60007 36.7481 5.56322 36.8088 5.53808C36.8695 5.51294 36.9346 5.5 37.0003 5.5C37.066 5.5 37.131 5.51294 37.1917 5.53808C37.2524 5.56322 37.3076 5.60007 37.354 5.64653C37.4005 5.69298 37.4373 5.74813 37.4625 5.80883C37.4876 5.86953 37.5006 5.93458 37.5006 6.00028C37.5006 6.06598 37.4876 6.13103 37.4625 6.19173C37.4373 6.25242 37.4005 6.30757 37.354 6.35403Z" fill="#E7EAEE" fill-opacity="0.6"/>
<path d="M13.5 4H3.5C3.36739 4 3.24021 3.94732 3.14645 3.85355C3.05268 3.75979 3 3.63261 3 3.5C3 3.36739 3.05268 3.24021 3.14645 3.14645C3.24021 3.05268 3.36739 3 3.5 3H12C12.1326 3 12.2598 2.94732 12.3536 2.85355C12.4473 2.75979 12.5 2.63261 12.5 2.5C12.5 2.36739 12.4473 2.24021 12.3536 2.14645C12.2598 2.05268 12.1326 2 12 2H3.5C3.10218 2 2.72064 2.15804 2.43934 2.43934C2.15804 2.72064 2 3.10218 2 3.5V11.5C2 11.8978 2.15804 12.2794 2.43934 12.5607C2.72064 12.842 3.10218 13 3.5 13H13.5C13.7652 13 14.0196 12.8946 14.2071 12.7071C14.3946 12.5196 14.5 12.2652 14.5 12V5C14.5 4.73478 14.3946 4.48043 14.2071 4.29289C14.0196 4.10536 13.7652 4 13.5 4ZM13.5 12H3.5C3.36739 12 3.24021 11.9473 3.14645 11.8536C3.05268 11.7598 3 11.6326 3 11.5V4.91437C3.16055 4.97129 3.32966 5.00025 3.5 5H13.5V12ZM10.5 8.25C10.5 8.10166 10.544 7.95666 10.6264 7.83332C10.7088 7.70999 10.8259 7.61386 10.963 7.55709C11.1 7.50032 11.2508 7.48547 11.3963 7.51441C11.5418 7.54335 11.6754 7.61478 11.7803 7.71967C11.8852 7.82456 11.9566 7.9582 11.9856 8.10368C12.0145 8.24917 11.9997 8.39997 11.9429 8.53701C11.8861 8.67406 11.79 8.79119 11.6667 8.8736C11.5433 8.95601 11.3983 9 11.25 9C11.0511 9 10.8603 8.92098 10.7197 8.78033C10.579 8.63968 10.5 8.44891 10.5 8.25Z" fill="#E7EAEE" fill-opacity="0.6"/>
</svg>
