<svg width="37" height="24" viewBox="0 0 37 24" fill="none" xmlns="http://www.w3.org/2000/svg">
<rect width="37" height="24" fill="white"/>
<path d="M22.0935 5.44922H14.8867V18.5508H22.0935V5.44922Z" fill="#FF5A00"/>
<path d="M15.3647 11.9995C15.3647 9.33761 16.6014 6.9751 18.499 5.44865C17.1024 4.33755 15.3407 3.66602 13.4191 3.66602C8.8669 3.66602 5.18359 7.39313 5.18359 11.9995C5.18359 16.6058 8.8669 20.3329 13.4191 20.3329C15.3407 20.3329 17.1024 19.6614 18.499 18.5503C16.5987 17.0454 15.3647 14.6613 15.3647 11.9995Z" fill="#EB001B"/>
<path d="M31.8154 11.9995C31.8154 16.6058 28.132 20.3329 23.5799 20.3329C21.6583 20.3329 19.8966 19.6614 18.5 18.5503C20.4216 17.0211 21.6343 14.6613 21.6343 11.9995C21.6343 9.33761 20.3976 6.9751 18.5 5.44865C19.8939 4.33755 21.6556 3.66602 23.5772 3.66602C28.132 3.66602 31.8154 7.41742 31.8154 11.9995Z" fill="#F79E1B"/>
</svg>
