<svg width="7" height="13" viewBox="0 0 7 13" fill="none" xmlns="http://www.w3.org/2000/svg">
<path d="M0.996255 0.173161L6.82894 6.08195C6.88317 6.13683 6.92619 6.202 6.95554 6.27373C6.98489 6.34546 7 6.42235 7 6.5C7 6.57765 6.98489 6.65454 6.95554 6.72627C6.92619 6.798 6.88317 6.86317 6.82894 6.91805L0.996255 12.8268C0.88681 12.9377 0.738371 13 0.583592 13C0.428814 13 0.280375 12.9377 0.17093 12.8268C0.0614851 12.716 0 12.5656 0 12.4088C0 12.252 0.0614851 12.1016 0.17093 11.9907L5.59168 6.5L0.17093 1.00926C0.116738 0.954356 0.0737513 0.889182 0.0444231 0.817453C0.0150948 0.745725 0 0.668846 0 0.591208C0 0.513569 0.0150948 0.43669 0.0444231 0.364963C0.0737513 0.293234 0.116738 0.228059 0.17093 0.173161C0.225122 0.118261 0.289456 0.0747147 0.360261 0.0450029C0.431066 0.0152922 0.506954 -9.53674e-07 0.583592 -9.53674e-07C0.660231 -9.53674e-07 0.736119 0.0152922 0.806924 0.0450029C0.877728 0.0747147 0.942063 0.118261 0.996255 0.173161Z" fill="#F7F7F7"/>
</svg>
