<svg width="27" height="15" viewBox="0 0 27 15" fill="none" xmlns="http://www.w3.org/2000/svg">
<path fill-rule="evenodd" clip-rule="evenodd" d="M14.6176 1.97031L12.7351 2.49449V0.514418L14.6176 0V1.97031ZM18.5325 3.06714C17.7975 3.06714 17.325 3.51357 17.0625 3.82421L16.965 3.22243H15.3149V14.5396L17.19 14.0252L17.1975 11.2784C17.4675 11.5307 17.865 11.8899 18.525 11.8899C19.8675 11.8899 21.09 10.4922 21.09 7.41539C21.0825 4.60065 19.845 3.06714 18.5325 3.06714ZM18.0825 9.75452C17.64 9.75452 17.3774 9.55074 17.1974 9.29834L17.19 5.69741C17.3849 5.41596 17.655 5.22187 18.0825 5.22187C18.765 5.22187 19.2375 6.21183 19.2375 7.48332C19.2375 8.78392 18.7724 9.75452 18.0825 9.75452ZM27.0001 7.51244C27.0001 5.02771 26.0701 3.06714 24.2926 3.06714C22.5076 3.06714 21.4276 5.02771 21.4276 7.49307C21.4276 10.4145 22.7026 11.8899 24.5326 11.8899C25.4251 11.8899 26.1001 11.6278 26.6101 11.259V9.31778C26.1001 9.64779 25.5151 9.85163 24.7726 9.85163C24.0451 9.85163 23.4001 9.52162 23.3176 8.3763H26.9851C26.9851 8.32287 26.9878 8.20151 26.9909 8.06161C26.9951 7.87136 27.0001 7.64664 27.0001 7.51244ZM23.2951 6.5904C23.2951 5.49364 23.8126 5.03746 24.2851 5.03746C24.7426 5.03746 25.2301 5.49364 25.2301 6.5904H23.2951ZM12.7349 3.23212H14.6175V11.7249H12.7349V3.23212ZM10.5976 3.23212L10.7176 3.95038C11.1601 2.9021 12.0376 3.11563 12.2776 3.23212V5.46451C12.0451 5.35772 11.2951 5.22187 10.8526 5.96925V11.7249H8.97759V3.23212H10.5976ZM6.96746 1.12588L5.13743 1.63062L5.12997 9.40514C5.12997 10.8416 5.96247 11.8996 7.07244 11.8996C7.68746 11.8996 8.13746 11.754 8.38497 11.5793V9.60898C8.14498 9.73515 6.95994 10.1816 6.95994 8.74512V5.29947H8.38497V3.23212H6.95994L6.96746 1.12588ZM2.53505 5.17338C2.13751 5.17338 1.89753 5.31891 1.89753 5.69748C1.89753 6.1108 2.31057 6.2926 2.82299 6.51815C3.65836 6.88586 4.7579 7.36979 4.76256 9.16249C4.76256 10.8999 3.69002 11.8996 2.13004 11.8996C1.48501 11.8996 0.779986 11.7346 0.0824826 11.3464V9.03632C0.712485 9.48282 1.50751 9.81283 2.13004 9.81283C2.55003 9.81283 2.85005 9.66723 2.85005 9.22073C2.85005 8.76297 2.40227 8.5537 1.86174 8.3011C1.0385 7.91635 0 7.43098 0 5.81396C0 4.09598 1.0125 3.06714 2.53505 3.06714C3.15753 3.06714 3.77255 3.19331 4.39504 3.51364V5.79453C3.82502 5.39659 3.10501 5.17338 2.53505 5.17338Z" fill="#6461FC"/>
</svg>
