<svg width="32" height="11" viewBox="0 0 32 11" fill="none" xmlns="http://www.w3.org/2000/svg">
<path d="M20.8428 0C18.5707 0 16.5402 1.19202 16.5402 3.39437C16.5402 5.92009 20.1414 6.0945 20.1414 7.36335C20.1414 7.8976 19.5365 8.37584 18.5034 8.37584C17.0371 8.37584 15.9413 7.70762 15.9413 7.70762L15.4724 9.93005C15.4724 9.93005 16.7348 10.4945 18.4108 10.4945C20.895 10.4945 22.8497 9.24396 22.8497 7.00391C22.8497 4.3351 19.2336 4.16583 19.2336 2.98815C19.2336 2.5696 19.7301 2.11105 20.7603 2.11105C21.9227 2.11105 22.871 2.59704 22.871 2.59704L23.3298 0.450554C23.3298 0.450554 22.298 0 20.8428 0ZM0.0550193 0.161999L0 0.485998C0 0.485998 0.95589 0.663067 1.81682 1.01632C2.92536 1.42132 3.00429 1.65715 3.19102 2.38949L5.2254 10.3274H7.9525L12.1538 0.161999H9.43299L6.7334 7.07352L5.6318 1.21499C5.53074 0.544513 5.01902 0.161999 4.39266 0.161999H0.0550193ZM13.2479 0.161999L11.1135 10.3274H13.7081L15.835 0.161999H13.2479ZM27.7187 0.161999C27.0931 0.161999 26.7616 0.501069 26.5184 1.09349L22.7172 10.3274H25.438L25.9644 8.78845H29.2792L29.5993 10.3274H32.0001L29.9057 0.161999H27.7187ZM28.0726 2.90838L28.8791 6.72296H26.7184L28.0726 2.90838Z" fill="#1434CB"/>
</svg>
