<svg width="24" height="24" viewBox="0 0 24 24" fill="none" xmlns="http://www.w3.org/2000/svg">
<path d="M16.1836 23.6803L5.2751 12.7718C5.17367 12.6705 5.09321 12.5502 5.03832 12.4177C4.98342 12.2853 4.95517 12.1434 4.95517 12C4.95517 11.8566 4.98342 11.7147 5.03832 11.5823C5.09321 11.4498 5.17367 11.3295 5.2751 11.2282L16.1836 0.319681C16.3883 0.114993 16.6659 0 16.9554 0C17.2449 0 17.5225 0.114993 17.7272 0.319681C17.9319 0.52437 18.0469 0.801987 18.0469 1.09146C18.0469 1.38093 17.9319 1.65855 17.7272 1.86324L7.58907 12L17.7272 22.1368C17.8285 22.2381 17.9089 22.3584 17.9638 22.4909C18.0186 22.6233 18.0469 22.7652 18.0469 22.9085C18.0469 23.0519 18.0186 23.1938 17.9638 23.3262C17.9089 23.4586 17.8285 23.579 17.7272 23.6803C17.6258 23.7817 17.5055 23.8621 17.3731 23.9169C17.2407 23.9718 17.0987 24 16.9554 24C16.8121 24 16.6702 23.9718 16.5377 23.9169C16.4053 23.8621 16.285 23.7817 16.1836 23.6803Z" fill="#051E33"/>
</svg>
