<svg width="61" height="54" viewBox="0 0 61 54" fill="none" xmlns="http://www.w3.org/2000/svg">
<g clip-path="url(#clip0_167_70527)">
<path d="M45.0876 26.6885L38.226 19.8269C37.9796 19.5391 37.5464 19.5056 37.2586 19.7521C36.9708 19.9986 36.9372 20.4317 37.1837 20.7196C37.2067 20.7464 37.2317 20.7714 37.2586 20.7944L42.9468 26.4895H15.7818C15.4029 26.4895 15.0957 26.7967 15.0957 27.1757C15.0957 27.5547 15.4029 27.8618 15.7818 27.8618H42.9468L37.2586 33.55C36.9708 33.7965 36.9372 34.2297 37.1837 34.5175C37.4303 34.8053 37.8634 34.8389 38.1512 34.5923C38.178 34.5693 38.2031 34.5443 38.226 34.5175L45.0876 27.6559C45.3536 27.3884 45.3536 26.9562 45.0876 26.6885Z" fill="#051E33"/>
</g>
<defs>
<clipPath id="clip0_167_70527">
<rect width="30" height="30" fill="white" transform="translate(15.0957 12.0766) scale(1.00638)"/>
</clipPath>
</defs>
</svg>
