<svg width="37" height="24" viewBox="0 0 37 24" fill="none" xmlns="http://www.w3.org/2000/svg">
<rect width="37" height="24" fill="white"/>
<path d="M10.2647 3.34961H17.0191C17.9617 3.34961 18.5507 4.1371 18.3298 5.10017L15.1832 18.8992C14.9623 19.8622 14.0149 20.6498 13.0724 20.6498H6.31801C5.37546 20.6498 4.78645 19.8623 5.00736 18.8992L8.15383 5.10017C8.37474 4.13211 9.31724 3.34961 10.2597 3.34961H10.2647Z" fill="#D10429"/>
<path d="M16.4295 3.34961H24.2005C25.1429 3.34961 24.7158 4.1371 24.495 5.10017L21.3484 18.8992C21.1274 19.8622 21.1961 20.6498 20.2536 20.6498H12.4832C11.5358 20.6498 10.9516 19.8623 11.1774 18.8992L14.324 5.10017C14.5449 4.13211 15.4873 3.34961 16.4348 3.34961H16.4299H16.4295Z" fill="#022E64"/>
<path d="M23.9252 3.34961H30.6796C31.6221 3.34961 32.2111 4.1371 31.9903 5.10017L28.8437 18.8992C28.6228 19.8622 27.6754 20.6498 26.7329 20.6498H19.9785C19.031 20.6498 18.4469 19.8623 18.6678 18.8992L21.8144 5.10017C22.0352 4.13211 22.9777 3.34961 23.9202 3.34961H23.9252Z" fill="#076F74"/>
<path d="M22.7942 16.3588H23.4323L23.6139 15.7317H22.9806L22.7942 16.3588ZM23.3047 14.6332L23.0837 15.3756C23.0837 15.3756 23.3243 15.2502 23.4568 15.21C23.5894 15.1799 23.7857 15.1548 23.7857 15.1548L23.9378 14.6382H23.2998L23.3047 14.6332ZM23.6237 13.5698L23.4127 14.2821C23.4127 14.2821 23.6483 14.1717 23.7808 14.1367C23.9134 14.1016 24.1097 14.0915 24.1097 14.0915L24.2618 13.5749H23.6287L23.6237 13.5698ZM25.0326 13.5698L24.2079 16.3537H24.4288L24.257 16.9305H24.036L23.9821 17.1061H23.1966L23.2506 16.9305H21.6602L21.8172 16.3989H21.9793L22.8138 13.5699L22.9807 12.998H23.7808L23.6973 13.2839C23.6973 13.2839 23.9084 13.1285 24.1146 13.0732C24.316 13.0181 25.4744 12.998 25.4744 12.998L25.3026 13.5649H25.0277L25.0326 13.5698Z" fill="#FEFEFE"/>
<path d="M25.3593 12.9981H26.2134L26.2232 13.3241C26.2184 13.3793 26.2625 13.4044 26.3656 13.4044H26.5374L26.3803 13.9412H25.9188C25.5213 13.9712 25.3691 13.7957 25.3789 13.6001L25.3641 13.0031L25.3593 12.9981ZM25.4644 15.5517H24.6496L24.787 15.0752H25.7197L25.8521 14.6388H24.9343L25.0913 14.102H27.6439L27.4868 14.6388H26.6278L26.4953 15.0752H27.3543L27.2119 15.5517H26.2841L26.1173 15.7523H26.4953L26.5885 16.3543C26.5983 16.4144 26.5983 16.4546 26.6179 16.4797C26.6376 16.4997 26.7505 16.5098 26.8143 16.5098H26.9272L26.7505 17.0967H26.4608C26.4167 17.0967 26.348 17.0917 26.2547 17.0917C26.1663 17.0816 26.1074 17.0314 26.0485 17.0013C25.9945 16.9763 25.916 16.9111 25.8964 16.7957L25.808 16.1938L25.3858 16.7857C25.2533 16.9712 25.0718 17.1167 24.7624 17.1167H24.1734L24.3304 16.595H24.5563C24.6202 16.595 24.6791 16.57 24.7233 16.5449C24.7674 16.5248 24.8067 16.5047 24.846 16.4396L25.4644 15.5517ZM16.5512 14.2461H18.7062L18.5491 14.7728H17.69L17.5575 15.2192H18.4411L18.2791 15.7609H17.4004L17.1845 16.4882C17.1599 16.5685 17.3956 16.5785 17.479 16.5785L17.9208 16.5183L17.744 17.1202H16.7524C16.674 17.1202 16.615 17.1102 16.5266 17.0901C16.4431 17.0701 16.4039 17.03 16.3696 16.9748C16.3351 16.9146 16.2762 16.8694 16.3155 16.739L16.6002 15.776H16.1094L16.2714 15.2242H16.7622L16.8948 14.7778H16.404L16.5611 14.2511L16.5512 14.2461ZM18.0401 13.294H18.9237L18.7617 13.8407H17.5541L17.4215 13.9561C17.3626 14.0113 17.3479 13.9913 17.2743 14.0314C17.2056 14.0664 17.0632 14.1367 16.8767 14.1367H16.4889L16.6459 13.61H16.7638C16.8619 13.61 16.9307 13.5999 16.965 13.5799C17.0043 13.5548 17.0485 13.4996 17.0926 13.4093L17.3135 12.998H18.1923L18.0401 13.299V13.294ZM19.7054 14.1969C19.7054 14.1969 19.9459 13.9712 20.3583 13.901C20.4516 13.881 21.0407 13.8909 21.0407 13.8909L21.129 13.5899H19.8871L19.7054 14.2019V14.1969ZM20.8737 14.4276H19.6415L19.568 14.6834H20.6381C20.7657 14.6684 20.7903 14.6884 20.8001 14.6784L20.8786 14.4276H20.8737ZM19.2735 13.0031H20.0245L19.9166 13.3893C19.9166 13.3893 20.1522 13.1937 20.319 13.1235C20.486 13.0633 20.859 13.0031 20.859 13.0031L22.0764 12.9981L21.6592 14.4126C21.5905 14.6534 21.507 14.8089 21.4579 14.8841C21.4138 14.9543 21.3597 15.0195 21.2517 15.0797C21.1487 15.1349 21.0553 15.17 20.967 15.175C20.8884 15.18 20.7608 15.1851 20.5939 15.1851H19.4207L19.0918 16.3036C19.0624 16.414 19.0477 16.4691 19.0673 16.4992C19.082 16.5243 19.1262 16.5544 19.1802 16.5544L19.6956 16.5042L19.5189 17.1162H18.9396C18.7531 17.1162 18.6205 17.1112 18.5273 17.1061C18.439 17.0961 18.3456 17.1061 18.2818 17.056C18.2279 17.0058 18.1445 16.9406 18.1493 16.8753C18.1542 16.8152 18.1788 16.7148 18.2181 16.5744L19.2735 13.0031Z" fill="#FEFEFE"/>
<path d="M21.4603 15.2536L21.3916 15.5947C21.3622 15.7 21.3376 15.7803 21.2591 15.8505C21.1756 15.9207 21.0824 15.9959 20.8566 15.9959L20.4393 16.016L20.4344 16.3972C20.4295 16.5025 20.459 16.4925 20.4737 16.5125C20.4933 16.5326 20.508 16.5376 20.5276 16.5477L20.6602 16.5376L21.0579 16.5176L20.8909 17.0794H20.4344C20.1153 17.0794 19.8748 17.0693 19.8011 17.0091C19.7226 16.9589 19.7128 16.8987 19.7128 16.7884L19.7422 15.2936H20.4737L20.4639 15.5996H20.6406C20.6995 15.5996 20.7437 15.5946 20.7682 15.5795C20.7927 15.5645 20.8075 15.5394 20.8173 15.5043L20.8909 15.2635H21.4653L21.4603 15.2536ZM11.0543 7.76562C11.0298 7.88601 10.5585 10.098 10.5585 10.098C10.4554 10.5444 10.3818 10.8655 10.1364 11.0711C9.994 11.1915 9.82707 11.2467 9.63567 11.2467C9.32639 11.2467 9.14969 11.0912 9.12023 10.7953L9.1153 10.695C9.1153 10.695 9.20856 10.098 9.20856 10.093C9.20856 10.093 9.69947 8.07662 9.78784 7.81075C9.79273 7.79572 9.79273 7.78569 9.79273 7.78065C8.83547 7.79073 8.66371 7.78065 8.65389 7.76562C8.64895 7.78569 8.62443 7.91107 8.62443 7.91107L8.1237 10.1834L8.07949 10.3739L7.99609 11.006C7.99609 11.1916 8.03044 11.347 8.10411 11.4725C8.33479 11.8838 8.98769 11.944 9.35584 11.944C9.83201 11.944 10.2787 11.8386 10.5781 11.653C11.1034 11.337 11.2408 10.8405 11.3586 10.4041L11.4176 10.1783C11.4176 10.1783 11.9232 8.0867 12.0115 7.81583C12.0164 7.80076 12.0164 7.79073 12.0214 7.78574C11.3243 7.79073 11.123 7.78574 11.0543 7.77067V7.76562ZM13.8544 11.9235C13.5156 11.9185 13.3929 11.9185 12.9953 11.9386L12.9806 11.9085C13.0149 11.7529 13.0542 11.6025 13.0836 11.447L13.1327 11.2363C13.2064 10.9103 13.2751 10.524 13.2849 10.4087C13.2947 10.3385 13.3143 10.1629 13.118 10.1629C13.0345 10.1629 12.9511 10.203 12.8628 10.2431C12.8136 10.4187 12.7204 10.9103 12.6713 11.131C12.5731 11.6025 12.5682 11.6577 12.524 11.8884L12.4946 11.9185C12.1461 11.9135 12.0234 11.9135 11.6208 11.9336L11.6012 11.8984C11.6699 11.6175 11.7337 11.3366 11.7976 11.0557C11.9644 10.2983 12.0086 10.0074 12.0528 9.62116L12.0872 9.6011C12.4799 9.54595 12.5731 9.53087 13.0002 9.44562L13.0345 9.48575L12.9707 9.72652C13.0444 9.6814 13.1131 9.63623 13.1867 9.6011C13.388 9.50078 13.6089 9.47068 13.7316 9.47068C13.9181 9.47068 14.1243 9.52588 14.2078 9.74659C14.2863 9.94219 14.2372 10.183 14.1292 10.6595L14.0752 10.9003C13.9672 11.432 13.9476 11.5272 13.8887 11.8884L13.8494 11.9185L13.8544 11.9235ZM15.2328 11.9248C15.0266 11.9248 14.8941 11.9198 14.7665 11.9248C14.6388 11.9248 14.5161 11.9349 14.3247 11.9399L14.3148 11.9248L14.305 11.9048C14.359 11.7041 14.3836 11.6339 14.413 11.5637C14.4376 11.4934 14.4621 11.4232 14.5112 11.2176C14.5701 10.9517 14.6094 10.7662 14.6339 10.6006C14.6634 10.4451 14.6781 10.3097 14.6977 10.1542L14.7124 10.1442L14.7272 10.1291C14.9334 10.099 15.061 10.079 15.1935 10.0589C15.3261 10.0389 15.4635 10.0138 15.6746 9.97367L15.6844 9.99374L15.6893 10.0138L15.5716 10.5104C15.5323 10.6759 15.493 10.8414 15.4587 11.007C15.3849 11.3581 15.3506 11.4885 15.3359 11.5838C15.3163 11.6741 15.3113 11.7192 15.2819 11.8998L15.2622 11.9148L15.2426 11.9299L15.2328 11.9248ZM17.412 10.6924C17.3973 10.7827 17.3188 11.1188 17.2157 11.2593C17.142 11.3646 17.0586 11.4298 16.9604 11.4298C16.931 11.4298 16.764 11.4298 16.7592 11.174C16.7592 11.0486 16.7837 10.9181 16.8131 10.7777C16.9015 10.3714 17.0095 10.0354 17.2795 10.0354C17.4906 10.0354 17.5053 10.2862 17.412 10.6924ZM18.3005 10.7326C18.4183 10.2009 18.3251 9.95006 18.2122 9.79958C18.0355 9.56884 17.7214 9.49362 17.3974 9.49362C17.2009 9.49362 16.7396 9.51369 16.3763 9.85478C16.1162 10.1005 15.9935 10.4366 15.9247 10.7577C15.851 11.0837 15.7676 11.6706 16.2978 11.8913C16.4597 11.9615 16.6954 11.9815 16.8475 11.9815C17.2354 11.9815 17.633 11.8712 17.9324 11.5502C18.1631 11.2894 18.2662 10.8981 18.3054 10.7326H18.3005ZM26.5748 11.9844C26.1624 11.9794 26.0446 11.9794 25.6666 11.9995L25.6421 11.9694C25.7452 11.5731 25.8482 11.1718 25.9415 10.7705C26.0593 10.2489 26.0888 10.0282 26.1281 9.7222L26.1574 9.69715C26.5649 9.63695 26.6779 9.62193 27.1049 9.54167L27.1147 9.57676C27.0361 9.90782 26.9626 10.2339 26.884 10.5599C26.727 11.2471 26.6729 11.5982 26.6141 11.9594L26.5748 11.9895V11.9844Z" fill="#FEFEFE"/>
<path d="M25.9841 10.7596C25.9644 10.8448 25.8859 11.1859 25.7829 11.3264C25.7141 11.4267 25.5472 11.4919 25.4539 11.4919C25.4245 11.4919 25.2625 11.4919 25.2527 11.2411C25.2527 11.1157 25.2772 10.9853 25.3066 10.8448C25.395 10.4486 25.5031 10.1125 25.773 10.1125C25.9841 10.1125 26.0774 10.3582 25.9841 10.7646V10.7596ZM26.7941 10.7997C26.9118 10.268 26.4308 10.7546 26.3572 10.579C26.2393 10.3031 26.313 9.75134 25.8418 9.56577C25.6601 9.49051 25.2331 9.58583 24.8698 9.92692C24.6146 10.1677 24.4869 10.5037 24.4182 10.8248C24.3445 11.1458 24.2611 11.7377 24.7863 11.9434C24.9533 12.0186 25.1054 12.0386 25.2576 12.0286C25.7878 11.9985 26.1902 11.1809 26.4898 10.8598C26.7203 10.6041 26.7597 10.9552 26.7941 10.7997ZM20.6303 11.9235C20.2915 11.9185 20.1737 11.9185 19.7761 11.9386L19.7614 11.9085C19.7958 11.7529 19.8351 11.6025 19.8693 11.447L19.9135 11.2363C19.9872 10.9103 20.0608 10.524 20.0656 10.4087C20.0755 10.3385 20.0951 10.1629 19.9037 10.1629C19.8202 10.1629 19.7319 10.203 19.6484 10.2431C19.6042 10.4187 19.506 10.9103 19.4569 11.131C19.3637 11.6025 19.3539 11.6577 19.3097 11.8884L19.2802 11.9185C18.9318 11.9135 18.809 11.9135 18.4065 11.9336L18.3869 11.8984C18.4556 11.6175 18.5194 11.3366 18.5833 11.0557C18.7502 10.2983 18.7894 10.0074 18.8384 9.62116L18.8679 9.6011C19.2607 9.54594 19.3588 9.53087 19.7809 9.44563L19.8154 9.48575L19.7565 9.72652C19.8252 9.6814 19.8988 9.63623 19.9675 9.6011C20.1689 9.50078 20.3897 9.47068 20.5124 9.47068C20.699 9.47068 20.9002 9.52588 20.9885 9.74659C21.0671 9.94219 21.0132 10.183 20.9051 10.6595L20.8511 10.9003C20.7382 11.432 20.7235 11.5272 20.6645 11.8884L20.6253 11.9185L20.6303 11.9235ZM23.5713 7.77062L23.2866 7.77566C22.5502 7.78569 22.2557 7.78065 22.1379 7.76562C22.1281 7.82082 22.1085 7.91611 22.1085 7.91611C22.1085 7.91611 21.8434 9.16007 21.8434 9.16506C21.8434 9.16506 21.2151 11.8135 21.1856 11.9389C21.8287 11.9289 22.0888 11.9289 22.2018 11.9439C22.2263 11.8185 22.3735 11.0812 22.3785 11.0812C22.3785 11.0812 22.5061 10.5394 22.5111 10.5194C22.5111 10.5194 22.5502 10.4642 22.5895 10.4391H22.6484C23.2032 10.4391 23.8266 10.4391 24.3175 10.073C24.6513 9.82219 24.8771 9.44596 24.9802 8.99452C25.0047 8.88417 25.0244 8.75375 25.0244 8.61834C25.0244 8.44276 24.9901 8.27227 24.8919 8.13681C24.6415 7.78065 24.1456 7.77566 23.5713 7.77062ZM23.9395 9.06978C23.8806 9.34564 23.7039 9.58142 23.4781 9.69177C23.2915 9.78705 23.0657 9.79708 22.8301 9.79708H22.6779L22.6877 9.73689C22.6877 9.73689 22.9676 8.49292 22.9676 8.49796L22.9773 8.43273L22.9822 8.38257L23.0952 8.39265C23.0952 8.39265 23.6744 8.44276 23.6842 8.44276C23.91 8.53305 24.0082 8.76378 23.9395 9.06978ZM29.9738 9.48575L29.9394 9.44563C29.5222 9.53087 29.4437 9.54595 29.0608 9.60115L29.0313 9.63119C29.0313 9.63623 29.0264 9.64127 29.0264 9.65126V9.64627C28.7417 10.3234 28.7466 10.178 28.5159 10.7097C28.5159 10.6846 28.5159 10.6695 28.5109 10.6444L28.452 9.49075L28.4176 9.45062C27.9758 9.53591 27.966 9.55094 27.5635 9.60614L27.534 9.63623C27.5291 9.65126 27.5291 9.66633 27.5291 9.68135L27.534 9.68639C27.5831 9.95222 27.5733 9.89202 27.6224 10.3084C27.647 10.514 27.6764 10.7197 27.7009 10.9203C27.7402 11.2614 27.7648 11.4269 27.8138 11.9436C27.5389 12.405 27.4751 12.5806 27.21 12.9868L27.2248 13.027C27.6224 13.012 27.7107 13.012 28.0052 13.012L28.0692 12.9367C28.2899 12.4502 29.9787 9.49079 29.9787 9.49079L29.9738 9.48575ZM15.614 9.81801C15.8398 9.6575 15.8692 9.43679 15.6778 9.32145C15.4864 9.20606 15.1477 9.24119 14.9218 9.40171C14.696 9.55723 14.6715 9.77788 14.863 9.89827C15.0495 10.0087 15.3882 9.97852 15.614 9.81801Z" fill="#FEFEFE"/>
<path d="M28.001 13.003L27.672 13.5799C27.569 13.7755 27.3726 13.926 27.0683 13.926L26.543 13.916L26.6952 13.3943H26.7982C26.8522 13.3943 26.8915 13.3893 26.921 13.3742C26.9504 13.3642 26.9652 13.3441 26.9897 13.314L27.1861 12.998H28.0058L28.001 13.003Z" fill="#FEFEFE"/>
</svg>
