<svg width="6" height="11" viewBox="0 0 6 11" fill="none" xmlns="http://www.w3.org/2000/svg">
<path d="M0.853952 0.146935L5.85351 5.14649C5.89999 5.19292 5.93687 5.24806 5.96203 5.30876C5.98719 5.36945 6.00014 5.43451 6.00014 5.50021C6.00014 5.56591 5.98719 5.63097 5.96203 5.69166C5.93687 5.75236 5.89999 5.8075 5.85351 5.85393L0.853952 10.8535C0.76014 10.9473 0.632904 11 0.500234 11C0.367563 11 0.240327 10.9473 0.146515 10.8535C0.0527028 10.7597 0 10.6324 0 10.4998C0 10.3671 0.0527028 10.2399 0.146515 10.146L4.79298 5.50021L0.146515 0.854372C0.100064 0.807921 0.0632169 0.752776 0.0380778 0.692085C0.0129387 0.631394 0 0.566345 0 0.500654C0 0.434962 0.0129387 0.369914 0.0380778 0.309222C0.0632169 0.248531 0.100064 0.193386 0.146515 0.146935C0.192966 0.100484 0.248111 0.0636378 0.308802 0.0384983C0.369494 0.0133588 0.434542 0.000419579 0.500234 0.000419579C0.565925 0.000419579 0.630974 0.0133588 0.691665 0.0384983C0.752356 0.0636378 0.807501 0.100484 0.853952 0.146935Z" fill="#E7EAEE" fill-opacity="0.5"/>
</svg>
