<svg width="30" height="16" viewBox="0 0 30 16" fill="none" xmlns="http://www.w3.org/2000/svg">
<path d="M29.8017 7.05642L22.9837 0.238334C22.7388 -0.0476569 22.3084 -0.080996 22.0224 0.16398C21.7364 0.408898 21.703 0.83932 21.948 1.12531C21.9709 1.15197 21.9957 1.17687 22.0224 1.19966L27.6745 6.85867H0.681785C0.305268 6.85867 0 7.16393 0 7.54051C0 7.91709 0.305268 8.2223 0.681785 8.2223H27.6745L22.0224 13.8744C21.7364 14.1194 21.703 14.5498 21.948 14.8358C22.193 15.1218 22.6234 15.1551 22.9093 14.9101C22.936 14.8873 22.9609 14.8624 22.9837 14.8358L29.8018 8.01769C30.0661 7.75185 30.0661 7.32237 29.8017 7.05642Z" fill="white"/>
</svg>
