<svg width="15" height="15" viewBox="0 0 15 15" fill="none" xmlns="http://www.w3.org/2000/svg">
<g clip-path="url(#clip0_167_70636)">
<path d="M3.05555 9.97099C4.53503 11.7395 6.31601 13.132 8.34875 14.1173C9.12268 14.484 10.1577 14.9192 11.3108 14.9938C11.3823 14.9969 11.4507 15 11.5222 15C12.2961 15 12.9178 14.7327 13.4244 14.1826C13.4275 14.1794 13.4337 14.1732 13.4368 14.167C13.6171 13.9494 13.8222 13.7536 14.0367 13.5454C14.1828 13.4055 14.332 13.2594 14.4749 13.1102C15.137 12.4202 15.137 11.5437 14.4687 10.8755L12.6007 9.00746C12.2837 8.67799 11.9045 8.50394 11.5066 8.50394C11.1088 8.50394 10.7265 8.67799 10.4001 9.00435L9.28742 10.1171C9.18485 10.058 9.07917 10.0052 8.97971 9.95545C8.85538 9.89329 8.74038 9.83423 8.63781 9.76896C7.62455 9.12557 6.70453 8.28637 5.82492 7.20783C5.38045 6.64525 5.08207 6.17281 4.87382 5.69105C5.16599 5.42685 5.43951 5.15023 5.7037 4.87982C5.79695 4.78346 5.8933 4.68711 5.98965 4.59076C6.32534 4.25508 6.50561 3.86656 6.50561 3.47182C6.50561 3.07708 6.32844 2.68856 5.98965 2.35288L5.06342 1.42665C4.95464 1.31786 4.85207 1.21218 4.74639 1.1034C4.54125 0.892043 4.32679 0.674472 4.11543 0.478657C3.79529 0.164733 3.4192 0 3.02136 0C2.62662 0 2.24742 0.164733 1.91485 0.481765L0.752397 1.64422C0.329687 2.06693 0.0903584 2.57978 0.0406278 3.17344C-0.0184273 3.91629 0.118332 4.70576 0.472663 5.65997C1.01659 7.13634 1.83715 8.50704 3.05555 9.97099ZM0.79902 3.23871C0.836318 2.82532 0.994834 2.48031 1.29322 2.18193L2.44946 1.02569C2.62973 0.851637 2.82865 0.7615 3.02136 0.7615C3.21096 0.7615 3.40366 0.851637 3.58083 1.03191C3.78907 1.22462 3.98489 1.42665 4.19624 1.64111C4.30192 1.7499 4.41071 1.85868 4.51949 1.97058L5.44572 2.89681C5.63843 3.08951 5.73789 3.28533 5.73789 3.47804C5.73789 3.67074 5.63843 3.86656 5.44572 4.05926C5.34937 4.15562 5.25302 4.25508 5.15667 4.35143C4.86761 4.6436 4.5972 4.92022 4.29881 5.18442L4.28327 5.19996C4.02529 5.45794 4.0657 5.70348 4.12786 5.88997C4.13097 5.8993 4.13408 5.90551 4.13719 5.91484C4.37652 6.48985 4.70909 7.03688 5.22815 7.6896C6.1606 8.83962 7.14278 9.73166 8.22442 10.4186C8.35808 10.5056 8.50105 10.574 8.6347 10.6424C8.75903 10.7045 8.87403 10.7636 8.9766 10.8288C8.98903 10.8351 8.99836 10.8413 9.01079 10.8475C9.11336 10.9003 9.21282 10.9252 9.31228 10.9252C9.56093 10.9252 9.72256 10.7667 9.7754 10.7138L10.9379 9.55139C11.1181 9.37111 11.3139 9.27476 11.5066 9.27476C11.7429 9.27476 11.9356 9.42085 12.0568 9.55139L13.931 11.4225C14.304 11.7955 14.3009 12.1995 13.9217 12.5943C13.7911 12.7341 13.6544 12.8678 13.5083 13.0077C13.2907 13.219 13.0638 13.4366 12.8587 13.6821C12.5013 14.0676 12.0754 14.2478 11.5253 14.2478C11.4725 14.2478 11.4165 14.2447 11.3637 14.2416C10.3442 14.1763 9.3962 13.7785 8.68443 13.4397C6.75115 12.5041 5.0541 11.177 3.6461 9.49233C2.48675 8.09677 1.7066 6.79755 1.19065 5.4051C0.870508 4.55035 0.749289 3.86345 0.79902 3.23871Z" fill="#051E33"/>
</g>
<defs>
<clipPath id="clip0_167_70636">
<rect width="15" height="15" fill="white"/>
</clipPath>
</defs>
</svg>
