<svg width="52" height="52" viewBox="0 0 52 52" fill="none" xmlns="http://www.w3.org/2000/svg">
<path d="M26 14C23.6266 14 21.3065 14.7038 19.3332 16.0224C17.3598 17.3409 15.8217 19.2151 14.9134 21.4078C14.0052 23.6005 13.7676 26.0133 14.2306 28.3411C14.6936 30.6689 15.8365 32.8071 17.5147 34.4853C19.1929 36.1635 21.3311 37.3064 23.6589 37.7694C25.9867 38.2324 28.3995 37.9948 30.5922 37.0866C32.7849 36.1783 34.6591 34.6402 35.9776 32.6668C37.2962 30.6935 38 28.3734 38 26C37.9967 22.8184 36.7313 19.7681 34.4816 17.5184C32.2319 15.2687 29.1816 14.0033 26 14ZM26 34C24.4177 34 22.871 33.5308 21.5554 32.6518C20.2398 31.7727 19.2145 30.5233 18.609 29.0615C18.0035 27.5997 17.845 25.9911 18.1537 24.4393C18.4624 22.8874 19.2243 21.462 20.3431 20.3431C21.462 19.2243 22.8874 18.4624 24.4393 18.1537C25.9911 17.845 27.5997 18.0035 29.0615 18.609C30.5233 19.2145 31.7727 20.2398 32.6518 21.5554C33.5308 22.871 34 24.4177 34 26C34 28.1217 33.1571 30.1566 31.6569 31.6569C30.1566 33.1571 28.1217 34 26 34ZM38 0H14C10.2882 0.00397056 6.72954 1.48024 4.10489 4.10489C1.48024 6.72954 0.00397056 10.2882 0 14V38C0.00397056 41.7118 1.48024 45.2705 4.10489 47.8951C6.72954 50.5198 10.2882 51.996 14 52H38C41.7118 51.996 45.2705 50.5198 47.8951 47.8951C50.5198 45.2705 51.996 41.7118 52 38V14C51.996 10.2882 50.5198 6.72954 47.8951 4.10489C45.2705 1.48024 41.7118 0.00397056 38 0ZM48 38C48 40.6522 46.9464 43.1957 45.0711 45.0711C43.1957 46.9464 40.6522 48 38 48H14C11.3478 48 8.8043 46.9464 6.92893 45.0711C5.05357 43.1957 4 40.6522 4 38V14C4 11.3478 5.05357 8.8043 6.92893 6.92893C8.8043 5.05357 11.3478 4 14 4H38C40.6522 4 43.1957 5.05357 45.0711 6.92893C46.9464 8.8043 48 11.3478 48 14V38ZM42 13C42 13.5933 41.8241 14.1734 41.4944 14.6667C41.1648 15.1601 40.6962 15.5446 40.148 15.7716C39.5999 15.9987 38.9967 16.0581 38.4147 15.9424C37.8328 15.8266 37.2982 15.5409 36.8787 15.1213C36.4591 14.7018 36.1734 14.1672 36.0576 13.5853C35.9419 13.0033 36.0013 12.4001 36.2284 11.8519C36.4554 11.3038 36.8399 10.8352 37.3333 10.5056C37.8266 10.1759 38.4067 10 39 10C39.7957 10 40.5587 10.3161 41.1213 10.8787C41.6839 11.4413 42 12.2044 42 13Z" fill="#E7EAEE"/>
</svg>
