<svg width="24" height="31" viewBox="0 0 24 31" fill="none" xmlns="http://www.w3.org/2000/svg">
<path d="M17.1836 27.277L6.2751 16.3685C6.17367 16.2671 6.09321 16.1468 6.03832 16.0144C5.98342 15.882 5.95517 15.74 5.95517 15.5967C5.95517 15.4533 5.98342 15.3114 6.03832 15.1789C6.09321 15.0465 6.17367 14.9262 6.2751 14.8249L17.1836 3.91636C17.3883 3.71167 17.6659 3.59668 17.9554 3.59668C18.2449 3.59668 18.5225 3.71167 18.7272 3.91636C18.9319 4.12105 19.0469 4.39867 19.0469 4.68814C19.0469 4.97761 18.9319 5.25523 18.7272 5.45992L8.58907 15.5967L18.7272 25.7334C18.8285 25.8348 18.9089 25.9551 18.9638 26.0875C19.0186 26.22 19.0469 26.3619 19.0469 26.5052C19.0469 26.6486 19.0186 26.7905 18.9638 26.9229C18.9089 27.0553 18.8285 27.1756 18.7272 27.277C18.6258 27.3783 18.5055 27.4587 18.3731 27.5136C18.2407 27.5684 18.0987 27.5967 17.9554 27.5967C17.8121 27.5967 17.6702 27.5684 17.5377 27.5136C17.4053 27.4587 17.285 27.3783 17.1836 27.277Z" fill="#051E33"/>
</svg>
